<svg width="900" height="84" viewBox="0 0 900 84" role="img"
    aria-label="Which tracks are holding a voice at each step"><rect x="243" y="0" width="13.6875" height="84"
      fill="var(--crit)" opacity=".16"/><rect x="256.6875" y="0" width="13.6875" height="84"
      fill="var(--crit)" opacity=".16"/><rect x="352.5" y="0" width="13.6875" height="84"
      fill="var(--crit)" opacity=".16"/><rect x="366.1875" y="0" width="13.6875" height="84"
      fill="var(--crit)" opacity=".16"/><rect x="379.875" y="0" width="13.6875" height="84"
      fill="var(--crit)" opacity=".16"/><rect x="462" y="0" width="13.6875" height="84"
      fill="var(--crit)" opacity=".16"/><rect x="475.6875" y="0" width="13.6875" height="84"
      fill="var(--crit)" opacity=".16"/><rect x="571.5" y="0" width="13.6875" height="84"
      fill="var(--crit)" opacity=".16"/><rect x="585.1875" y="0" width="13.6875" height="84"
      fill="var(--crit)" opacity=".16"/><rect x="681" y="0" width="13.6875" height="84"
      fill="var(--crit)" opacity=".16"/><rect x="694.6875" y="0" width="13.6875" height="84"
      fill="var(--crit)" opacity=".16"/><rect x="708.375" y="0" width="13.6875" height="84"
      fill="var(--crit)" opacity=".16"/><rect x="790.5" y="0" width="13.6875" height="84"
      fill="var(--crit)" opacity=".16"/><rect x="804.1875" y="0" width="13.6875" height="84"
      fill="var(--crit)" opacity=".16"/><rect x="886.3125" y="0" width="13.6875" height="84"
      fill="var(--crit)" opacity=".16"/><line x1="24" y1="0" x2="24" y2="84"
      stroke="var(--rule)" stroke-width="1" opacity="0.55"/><line x1="243" y1="0" x2="243" y2="84"
      stroke="var(--rule)" stroke-width="1" opacity="0.55"/><line x1="462" y1="0" x2="462" y2="84"
      stroke="var(--rule)" stroke-width="1" opacity="0.55"/><line x1="681" y1="0" x2="681" y2="84"
      stroke="var(--rule)" stroke-width="1" opacity="0.55"/><line x1="900" y1="0" x2="900" y2="84"
      stroke="var(--rule)" stroke-width="1" opacity="0.55"/><rect x="24" y="1" width="12.6875"
          height="9" rx="2" fill="var(--s3)" opacity="0.42"
           data-tip-t="T1 — KICK" data-tip-b="step 1, holds 1 step"/><rect x="78.75" y="1" width="12.6875"
          height="9" rx="2" fill="var(--s3)" opacity="0.42"
           data-tip-t="T1 — KICK" data-tip-b="step 5, holds 1 step"/><rect x="133.5" y="1" width="12.6875"
          height="9" rx="2" fill="var(--s3)" opacity="0.42"
           data-tip-t="T1 — KICK" data-tip-b="step 9, holds 1 step"/><rect x="188.25" y="1" width="12.6875"
          height="9" rx="2" fill="var(--s3)" opacity="0.42"
           data-tip-t="T1 — KICK" data-tip-b="step 13, holds 1 step"/><rect x="243" y="1" width="12.6875"
          height="9" rx="2" fill="var(--s3)" opacity="1"
           data-tip-t="T1 — KICK" data-tip-b="step 17, holds 1 step · sounding during an overrun"/><rect x="297.75" y="1" width="12.6875"
          height="9" rx="2" fill="var(--s3)" opacity="0.42"
           data-tip-t="T1 — KICK" data-tip-b="step 21, holds 1 step"/><rect x="352.5" y="1" width="12.6875"
          height="9" rx="2" fill="var(--s3)" opacity="1"
           data-tip-t="T1 — KICK" data-tip-b="step 25, holds 1 step · sounding during an overrun"/><rect x="407.25" y="1" width="12.6875"
          height="9" rx="2" fill="var(--s3)" opacity="0.42"
           data-tip-t="T1 — KICK" data-tip-b="step 29, holds 1 step"/><rect x="462" y="1" width="12.6875"
          height="9" rx="2" fill="var(--s3)" opacity="1"
           data-tip-t="T1 — KICK" data-tip-b="step 33, holds 1 step · sounding during an overrun"/><rect x="516.75" y="1" width="12.6875"
          height="9" rx="2" fill="var(--s3)" opacity="0.42"
           data-tip-t="T1 — KICK" data-tip-b="step 37, holds 1 step"/><rect x="571.5" y="1" width="12.6875"
          height="9" rx="2" fill="var(--s3)" opacity="1"
           data-tip-t="T1 — KICK" data-tip-b="step 41, holds 1 step · sounding during an overrun"/><rect x="626.25" y="1" width="12.6875"
          height="9" rx="2" fill="var(--s3)" opacity="0.42"
           data-tip-t="T1 — KICK" data-tip-b="step 45, holds 1 step"/><rect x="681" y="1" width="12.6875"
          height="9" rx="2" fill="var(--s3)" opacity="1"
           data-tip-t="T1 — KICK" data-tip-b="step 49, holds 1 step · sounding during an overrun"/><rect x="735.75" y="1" width="12.6875"
          height="9" rx="2" fill="var(--s3)" opacity="0.42"
           data-tip-t="T1 — KICK" data-tip-b="step 53, holds 1 step"/><rect x="790.5" y="1" width="12.6875"
          height="9" rx="2" fill="var(--s3)" opacity="1"
           data-tip-t="T1 — KICK" data-tip-b="step 57, holds 1 step · sounding during an overrun"/><rect x="845.25" y="1" width="12.6875"
          height="9" rx="2" fill="var(--s3)" opacity="0.42"
           data-tip-t="T1 — KICK" data-tip-b="step 61, holds 1 step"/><text x="18" y="9" text-anchor="end"
      font-size="10" fill="var(--ink2)">T1</text><rect x="24" y="15" width="40.0625"
          height="9" rx="2" fill="var(--s1)" opacity="0.42"
           data-tip-t="T2 — BASS" data-tip-b="step 1, holds 3 steps"/><rect x="42.25" y="15" width="12.6875"
          height="9" rx="2" fill="var(--s1)" opacity="0.42"
           data-tip-t="T2 — BASS" data-tip-b="step 2.333333333333333, holds 1 step"/><rect x="87.875" y="15" width="81.12500000000003"
          height="9" rx="2" fill="var(--s1)" opacity="0.42"
           data-tip-t="T2 — BASS" data-tip-b="step 5.666666666666667, holds 6 steps"/><rect x="133.5" y="15" width="40.0625"
          height="9" rx="2" fill="var(--s1)" opacity="0.42"
           data-tip-t="T2 — BASS" data-tip-b="step 9, holds 3 steps"/><rect x="151.75" y="15" width="12.6875"
          height="9" rx="2" fill="var(--s1)" opacity="0.42"
           data-tip-t="T2 — BASS" data-tip-b="step 10.333333333333334, holds 1 step"/><rect x="197.37500000000003" y="15" width="81.12499999999997"
          height="9" rx="2" fill="var(--s1)" opacity="0.42"
           data-tip-t="T2 — BASS" data-tip-b="step 13.666666666666668, holds 6 steps"/><rect x="243" y="15" width="40.0625"
          height="9" rx="2" fill="var(--s1)" opacity="1"
           data-tip-t="T2 — BASS" data-tip-b="step 17, holds 3 steps · sounding during an overrun"/><rect x="261.25" y="15" width="12.6875"
          height="9" rx="2" fill="var(--s1)" opacity="0.42"
           data-tip-t="T2 — BASS" data-tip-b="step 18.333333333333332, holds 1 step"/><rect x="306.875" y="15" width="81.125"
          height="9" rx="2" fill="var(--s1)" opacity="0.42"
           data-tip-t="T2 — BASS" data-tip-b="step 21.666666666666668, holds 6 steps"/><rect x="352.5" y="15" width="40.0625"
          height="9" rx="2" fill="var(--s1)" opacity="1"
           data-tip-t="T2 — BASS" data-tip-b="step 25, holds 3 steps · sounding during an overrun"/><rect x="370.75" y="15" width="12.6875"
          height="9" rx="2" fill="var(--s1)" opacity="0.42"
           data-tip-t="T2 — BASS" data-tip-b="step 26.333333333333332, holds 1 step"/><rect x="416.375" y="15" width="81.12500000000006"
          height="9" rx="2" fill="var(--s1)" opacity="0.42"
           data-tip-t="T2 — BASS" data-tip-b="step 29.666666666666668, holds 6 steps"/><rect x="462" y="15" width="40.0625"
          height="9" rx="2" fill="var(--s1)" opacity="1"
           data-tip-t="T2 — BASS" data-tip-b="step 33, holds 3 steps · sounding during an overrun"/><rect x="480.25000000000006" y="15" width="12.6875"
          height="9" rx="2" fill="var(--s1)" opacity="0.42"
           data-tip-t="T2 — BASS" data-tip-b="step 34.333333333333336, holds 1 step"/><rect x="525.875" y="15" width="81.125"
          height="9" rx="2" fill="var(--s1)" opacity="0.42"
           data-tip-t="T2 — BASS" data-tip-b="step 37.666666666666664, holds 6 steps"/><rect x="571.5" y="15" width="40.0625"
          height="9" rx="2" fill="var(--s1)" opacity="1"
           data-tip-t="T2 — BASS" data-tip-b="step 41, holds 3 steps · sounding during an overrun"/><rect x="589.75" y="15" width="12.6875"
          height="9" rx="2" fill="var(--s1)" opacity="0.42"
           data-tip-t="T2 — BASS" data-tip-b="step 42.333333333333336, holds 1 step"/><rect x="635.375" y="15" width="81.125"
          height="9" rx="2" fill="var(--s1)" opacity="0.42"
           data-tip-t="T2 — BASS" data-tip-b="step 45.666666666666664, holds 6 steps"/><rect x="681" y="15" width="40.0625"
          height="9" rx="2" fill="var(--s1)" opacity="1"
           data-tip-t="T2 — BASS" data-tip-b="step 49, holds 3 steps · sounding during an overrun"/><rect x="699.25" y="15" width="12.6875"
          height="9" rx="2" fill="var(--s1)" opacity="0.42"
           data-tip-t="T2 — BASS" data-tip-b="step 50.333333333333336, holds 1 step"/><rect x="744.875" y="15" width="81.125"
          height="9" rx="2" fill="var(--s1)" opacity="0.42"
           data-tip-t="T2 — BASS" data-tip-b="step 53.666666666666664, holds 6 steps"/><rect x="790.5" y="15" width="40.0625"
          height="9" rx="2" fill="var(--s1)" opacity="1"
           data-tip-t="T2 — BASS" data-tip-b="step 57, holds 3 steps · sounding during an overrun"/><rect x="808.75" y="15" width="12.6875"
          height="9" rx="2" fill="var(--s1)" opacity="0.42"
           data-tip-t="T2 — BASS" data-tip-b="step 58.333333333333336, holds 1 step"/><rect x="854.375" y="15" width="44.625"
          height="9" rx="2" fill="var(--s1)" opacity="0.42"
           data-tip-t="T2 — BASS" data-tip-b="step 61.666666666666664, holds 6 steps"/><text x="18" y="23" text-anchor="end"
      font-size="10" fill="var(--ink2)">T2</text><rect x="24" y="29" width="53.75"
          height="9" rx="2" fill="var(--s2)" opacity="0.42"
           data-tip-t="T3 — PAD" data-tip-b="step 1, holds 4 steps"/><rect x="133.5" y="29" width="108.5"
          height="9" rx="2" fill="var(--s2)" opacity="0.42"
           data-tip-t="T3 — PAD" data-tip-b="step 9, holds 8 steps"/><rect x="243" y="29" width="53.75"
          height="9" rx="2" fill="var(--s2)" opacity="1"
           data-tip-t="T3 — PAD" data-tip-b="step 17, holds 4 steps · sounding during an overrun"/><rect x="352.5" y="29" width="108.5"
          height="9" rx="2" fill="var(--s2)" opacity="1"
           data-tip-t="T3 — PAD" data-tip-b="step 25, holds 8 steps · sounding during an overrun"/><rect x="462" y="29" width="53.75"
          height="9" rx="2" fill="var(--s2)" opacity="1"
           data-tip-t="T3 — PAD" data-tip-b="step 33, holds 4 steps · sounding during an overrun"/><rect x="571.5" y="29" width="108.5"
          height="9" rx="2" fill="var(--s2)" opacity="1"
           data-tip-t="T3 — PAD" data-tip-b="step 41, holds 8 steps · sounding during an overrun"/><rect x="681" y="29" width="53.75"
          height="9" rx="2" fill="var(--s2)" opacity="1"
           data-tip-t="T3 — PAD" data-tip-b="step 49, holds 4 steps · sounding during an overrun"/><rect x="790.5" y="29" width="108.5"
          height="9" rx="2" fill="var(--s2)" opacity="1"
           data-tip-t="T3 — PAD" data-tip-b="step 57, holds 8 steps · sounding during an overrun"/><text x="18" y="37" text-anchor="end"
      font-size="10" fill="var(--ink2)">T3</text><rect x="24" y="43" width="12.6875"
          height="9" rx="2" fill="var(--s4)" opacity="0.42"
           data-tip-t="T4 — LEAD" data-tip-b="step 1, holds 1 step"/><rect x="115.25" y="43" width="12.6875"
          height="9" rx="2" fill="var(--s4)" opacity="0.42"
           data-tip-t="T4 — LEAD" data-tip-b="step 7.666666666666667, holds 1 step"/><rect x="206.5" y="43" width="692.5"
          height="9" rx="2" fill="var(--s4)" opacity="0.42"
           data-tip-t="T4 — LEAD" data-tip-b="step 14.333333333333334, holds INF"/><rect x="261.25" y="43" width="12.6875"
          height="9" rx="2" fill="var(--s4)" opacity="0.42"
           data-tip-t="T4 — LEAD" data-tip-b="step 18.333333333333332, holds 1 step"/><rect x="279.5" y="43" width="12.6875"
          height="9" rx="2" fill="var(--s4)" opacity="0.42"
           data-tip-t="T4 — LEAD" data-tip-b="step 19.666666666666668, holds 1 step"/><rect x="370.75000000000006" y="43" width="12.6875"
          height="9" rx="2" fill="var(--s4)" opacity="0.42"
           data-tip-t="T4 — LEAD" data-tip-b="step 26.333333333333336, holds 1 step"/><rect x="462" y="43" width="437"
          height="9" rx="2" fill="var(--s4)" opacity="1"
           data-tip-t="T4 — LEAD" data-tip-b="step 33, holds INF · sounding during an overrun"/><rect x="516.75" y="43" width="12.6875"
          height="9" rx="2" fill="var(--s4)" opacity="0.42"
           data-tip-t="T4 — LEAD" data-tip-b="step 37, holds 1 step"/><rect x="535" y="43" width="12.6875"
          height="9" rx="2" fill="var(--s4)" opacity="0.42"
           data-tip-t="T4 — LEAD" data-tip-b="step 38.333333333333336, holds 1 step"/><rect x="626.25" y="43" width="12.6875"
          height="9" rx="2" fill="var(--s4)" opacity="0.42"
           data-tip-t="T4 — LEAD" data-tip-b="step 45, holds 1 step"/><rect x="717.5000000000001" y="43" width="181.4999999999999"
          height="9" rx="2" fill="var(--s4)" opacity="0.42"
           data-tip-t="T4 — LEAD" data-tip-b="step 51.66666666666667, holds INF"/><rect x="772.2500000000001" y="43" width="12.6875"
          height="9" rx="2" fill="var(--s4)" opacity="0.42"
           data-tip-t="T4 — LEAD" data-tip-b="step 55.66666666666667, holds 1 step"/><rect x="790.5" y="43" width="12.6875"
          height="9" rx="2" fill="var(--s4)" opacity="1"
           data-tip-t="T4 — LEAD" data-tip-b="step 57, holds 1 step · sounding during an overrun"/><rect x="881.75" y="43" width="12.6875"
          height="9" rx="2" fill="var(--s4)" opacity="0.42"
           data-tip-t="T4 — LEAD" data-tip-b="step 63.666666666666664, holds 1 step"/><text x="18" y="51" text-anchor="end"
      font-size="10" fill="var(--ink2)">T4</text><rect x="24" y="57" width="12.6875"
          height="9" rx="2" fill="var(--s5)" opacity="0.42"
           data-tip-t="A — EXT SYNTH" data-tip-b="step 1, holds 1 step"/><rect x="65.0625" y="57" width="12.6875"
          height="9" rx="2" fill="var(--s5)" opacity="0.42"
           data-tip-t="A — EXT SYNTH" data-tip-b="step 4, holds 1 step"/><rect x="119.8125" y="57" width="12.6875"
          height="9" rx="2" fill="var(--s5)" opacity="0.42"
           data-tip-t="A — EXT SYNTH" data-tip-b="step 8, holds 1 step"/><rect x="160.875" y="57" width="12.6875"
          height="9" rx="2" fill="var(--s5)" opacity="0.42"
           data-tip-t="A — EXT SYNTH" data-tip-b="step 11, holds 1 step"/><rect x="215.625" y="57" width="12.6875"
          height="9" rx="2" fill="var(--s5)" opacity="0.42"
           data-tip-t="A — EXT SYNTH" data-tip-b="step 15, holds 1 step"/><rect x="256.6875" y="57" width="12.6875"
          height="9" rx="2" fill="var(--s5)" opacity="1"
           data-tip-t="A — EXT SYNTH" data-tip-b="step 18, holds 1 step · sounding during an overrun"/><rect x="311.4375" y="57" width="12.6875"
          height="9" rx="2" fill="var(--s5)" opacity="0.42"
           data-tip-t="A — EXT SYNTH" data-tip-b="step 22, holds 1 step"/><rect x="352.5" y="57" width="12.6875"
          height="9" rx="2" fill="var(--s5)" opacity="1"
           data-tip-t="A — EXT SYNTH" data-tip-b="step 25, holds 1 step · sounding during an overrun"/><rect x="407.25" y="57" width="12.6875"
          height="9" rx="2" fill="var(--s5)" opacity="0.42"
           data-tip-t="A — EXT SYNTH" data-tip-b="step 29, holds 1 step"/><rect x="448.3125" y="57" width="12.6875"
          height="9" rx="2" fill="var(--s5)" opacity="0.42"
           data-tip-t="A — EXT SYNTH" data-tip-b="step 32, holds 1 step"/><rect x="503.0625" y="57" width="12.6875"
          height="9" rx="2" fill="var(--s5)" opacity="0.42"
           data-tip-t="A — EXT SYNTH" data-tip-b="step 36, holds 1 step"/><rect x="544.125" y="57" width="12.6875"
          height="9" rx="2" fill="var(--s5)" opacity="0.42"
           data-tip-t="A — EXT SYNTH" data-tip-b="step 39, holds 1 step"/><rect x="598.875" y="57" width="12.6875"
          height="9" rx="2" fill="var(--s5)" opacity="0.42"
           data-tip-t="A — EXT SYNTH" data-tip-b="step 43, holds 1 step"/><rect x="639.9375" y="57" width="12.6875"
          height="9" rx="2" fill="var(--s5)" opacity="0.42"
           data-tip-t="A — EXT SYNTH" data-tip-b="step 46, holds 1 step"/><rect x="694.6875" y="57" width="12.6875"
          height="9" rx="2" fill="var(--s5)" opacity="1"
           data-tip-t="A — EXT SYNTH" data-tip-b="step 50, holds 1 step · sounding during an overrun"/><rect x="735.75" y="57" width="12.6875"
          height="9" rx="2" fill="var(--s5)" opacity="0.42"
           data-tip-t="A — EXT SYNTH" data-tip-b="step 53, holds 1 step"/><rect x="790.5" y="57" width="12.6875"
          height="9" rx="2" fill="var(--s5)" opacity="1"
           data-tip-t="A — EXT SYNTH" data-tip-b="step 57, holds 1 step · sounding during an overrun"/><rect x="831.5625" y="57" width="12.6875"
          height="9" rx="2" fill="var(--s5)" opacity="0.42"
           data-tip-t="A — EXT SYNTH" data-tip-b="step 60, holds 1 step"/><rect x="886.3125" y="57" width="12.6875"
          height="9" rx="2" fill="var(--s5)" opacity="1"
           data-tip-t="A — EXT SYNTH" data-tip-b="step 64, holds 1 step · sounding during an overrun"/><text x="18" y="65" text-anchor="end"
      font-size="10" fill="var(--ink2)">A</text><rect x="51.375" y="71" width="26.375"
          height="9" rx="2" fill="var(--ink3)" opacity="0.42"
           data-tip-t="T6 — &lt;b&gt;&amp;" data-tip-b="step 3, holds 2 steps"/><rect x="215.625" y="71" width="26.375"
          height="9" rx="2" fill="var(--ink3)" opacity="0.42"
           data-tip-t="T6 — &lt;b&gt;&amp;" data-tip-b="step 15, holds 2 steps"/><rect x="379.875" y="71" width="26.375"
          height="9" rx="2" fill="var(--ink3)" opacity="1"
           data-tip-t="T6 — &lt;b&gt;&amp;" data-tip-b="step 27, holds 2 steps · sounding during an overrun"/><rect x="544.125" y="71" width="26.375"
          height="9" rx="2" fill="var(--ink3)" opacity="0.42"
           data-tip-t="T6 — &lt;b&gt;&amp;" data-tip-b="step 39, holds 2 steps"/><rect x="708.375" y="71" width="26.375"
          height="9" rx="2" fill="var(--ink3)" opacity="1"
           data-tip-t="T6 — &lt;b&gt;&amp;" data-tip-b="step 51, holds 2 steps · sounding during an overrun"/><rect x="872.625" y="71" width="26.375"
          height="9" rx="2" fill="var(--ink3)" opacity="1"
           data-tip-t="T6 — &lt;b&gt;&amp;" data-tip-b="step 63, holds 2 steps · sounding during an overrun"/><text x="18" y="79" text-anchor="end"
      font-size="10" fill="var(--ink2)">T6</text></svg>